<svg aria-hidden="true" style="position: absolute; width: 0; height: 0; overflow: hidden;"
    version="1.1" xmlns="http://www.w3.org/2000/svg" xmlns:xlink="http://www.w3.org/1999/xlink">
    <defs>
        <symbol id="icon-antenna" viewBox="0 0 30 32">
            <path fill="#212121" style="fill: var(--color1, #212121)"
                d="M29.701 22.098l-8.443-8.503 0.937-4.617c0.242 0.096 0.498 0.142 0.759 0.146h0.005c0.007 0 0.016 0 0.025 0 1.193 0 2.16-0.967 2.16-2.16 0-1.184-0.953-2.146-2.134-2.16h-0.001c-0.008-0-0.016-0-0.025-0-1.184 0-2.146 0.953-2.16 2.134v0.001c0 0.256 0.041 0.507 0.123 0.75l-4.96 0.608-8.082-8.137c-0.095-0.098-0.228-0.159-0.375-0.16h-0c-0.142 0-0.274 0.055-0.375 0.155l-1.513 1.504c-0.21 0.21-0.21 0.544 0 0.754l0.814 0.823c-3.154 5.797-2.13 12.978 2.519 17.664 0.041 0.041 0.091 0.073 0.146 0.096-0.032 0.178-0.050 0.366-0.050 0.549v6.185h-6.4c-1.472 0-2.665 1.193-2.67 2.665v1.065c0 0.293 0.238 0.535 0.535 0.535h24.535c0.293 0 0.535-0.238 0.535-0.535v-1.065c0-1.472-1.193-2.665-2.665-2.665v0h-6.4v-2.743c1.001 0.21 2.025 0.315 3.049 0.32 2.459 0 4.878-0.617 7.040-1.783l0.818 0.823c0.101 0.101 0.233 0.16 0.375 0.16s0.274-0.055 0.375-0.155l1.513-1.504c0.21-0.21 0.21-0.544 0-0.754zM22.208 6.235c0.416-0.416 1.093-0.411 1.509 0 0.416 0.416 0.411 1.093 0 1.509-0.201 0.197-0.471 0.311-0.754 0.311-0.59 0-1.065-0.485-1.061-1.074 0-0.283 0.114-0.553 0.315-0.75zM20.955 9.737l-0.599 2.944-1.175-1.184 1.774-1.765zM20.347 8.837l-1.92 1.911-1.486-1.495 3.406-0.416zM22.935 28.8c0.882 0 1.6 0.718 1.6 1.6v0.535h-23.47v-0.535c0-0.882 0.718-1.6 1.6-1.6h20.265zM15.465 26.665v1.065h-5.335v-1.065h5.335zM10.135 25.6v-4.055c0-1.294 1.198-2.345 2.665-2.345s2.665 1.051 2.665 2.345v4.055h-5.335zM16.535 23.904v-2.359c0-1.883-1.673-3.415-3.735-3.415-0.015-0-0.034-0-0.052-0-1.355 0-2.545 0.707-3.221 1.772l-0.009 0.016c-4.059-4.274-4.974-10.647-2.281-15.886l18.601 18.706c-2.871 1.463-6.167 1.874-9.307 1.161zM27.822 23.218l-21.056-21.175 0.754-0.75 21.061 21.184-0.754 0.754z"></path>
            <path fill="#2196f3" style="fill: var(--color2, #2196f3)"
                d="M12.805 20.265h-0.005c0 0-0 0-0 0-0.883 0-1.599 0.713-1.605 1.595v0c0 0.882 0.713 1.6 1.595 1.605h0.005c0.882 0 1.6-0.713 1.6-1.595s-0.713-1.6-1.595-1.605zM13.179 22.245c-0.21 0.206-0.549 0.206-0.754 0-0.206-0.21-0.206-0.549 0-0.754 0.101-0.101 0.233-0.155 0.375-0.155 0.293 0 0.53 0.242 0.53 0.535 0 0.142-0.059 0.274-0.155 0.375h0.005z"></path>
        </symbol>
        <symbol id="icon-astronaut" viewBox="0 0 32 32">
            <path fill="#2196f3" style="fill: var(--color2, #2196f3)"
                d="M31.973 4.475c-0.064-0.192-0.229-0.334-0.43-0.361l-1.911-0.279-0.855-1.733c-0.178-0.366-0.777-0.366-0.955 0l-0.855 1.733-1.911 0.279c-0.261 0.037-0.459 0.259-0.459 0.527 0 0.15 0.062 0.286 0.162 0.382l0 0 1.385 1.349-0.325 1.902c-0.037 0.201 0.046 0.402 0.21 0.521s0.384 0.137 0.562 0.041l1.71-0.901 1.71 0.901c0.261 0.137 0.585 0.037 0.722-0.224 0.055-0.105 0.073-0.219 0.055-0.338l-0.325-1.902 1.385-1.349c0.146-0.142 0.197-0.352 0.133-0.549zM29.513 5.801c-0.128 0.123-0.183 0.297-0.151 0.471l0.192 1.115-1.001-0.526c-0.155-0.082-0.343-0.082-0.498 0l-1.001 0.526 0.192-1.115c0.032-0.174-0.027-0.347-0.151-0.471l-0.809-0.791 1.12-0.16c0.174-0.027 0.325-0.133 0.402-0.293l0.498-1.015 0.498 1.015c0.078 0.16 0.229 0.265 0.402 0.293l1.12 0.16-0.809 0.791zM26.135 20.471h-1.065v1.065h1.065v-1.065zM26.135 22.606h-1.065v1.065h1.065v-1.065zM27.2 21.541h-1.065v1.065h1.065v-1.065zM25.065 21.541h-1.065v1.065h1.065v-1.065zM22.4 26.341h-1.065v1.065h1.065v-1.065zM22.4 28.471h-1.065v1.065h1.065v-1.065zM23.465 27.406h-1.065v1.065h1.065v-1.065zM21.335 27.406h-1.065v1.065h1.065v-1.065zM16 24.206h-1.065v1.065h1.065v-1.065zM16 26.341h-1.065v1.065h1.065v-1.065zM17.065 25.271h-1.065v1.065h1.065v-1.065zM14.935 25.271h-1.065v1.065h1.065v-1.065zM5.865 6.071h-1.065v1.065h1.065v-1.065zM5.865 8.206h-1.065v1.065h1.065v-1.065zM6.935 7.141h-1.065v1.065h1.065v-1.065zM4.8 7.141h-1.065v1.065h1.065v-1.065z"></path>
            <path fill="#212121" style="fill: var(--color1, #212121)"
                d="M24.713 14.107c-0.283-0.384-0.713-0.64-1.189-0.704-0.475-0.069-0.96 0.059-1.339 0.352l-1.253 0.96-1.897 1.417-1.358-0.539c2.423-1.088 4.114-3.506 4.114-6.322 0-3.822-3.122-6.935-6.962-6.935s-6.962 3.109-6.962 6.935c0 1.385 0.416 2.674 1.12 3.758l-2.77-0.023s-0.014 0.005-0.023 0.005c-0.055 0-0.105 0.014-0.155 0.032-0.014 0.005-0.027 0.009-0.037 0.014-0.005 0-0.014 0-0.018 0.005l-3.232 1.595-1.893 0.91s-0.041 0.023-0.064 0.037c-0.482 0.324-0.794 0.867-0.794 1.484 0 0.296 0.072 0.575 0.2 0.821l-0.005-0.010c0.221 0.422 0.593 0.74 1.043 0.883l0.013 0.003c0.457 0.146 0.955 0.101 1.381-0.128l1.39-0.736 2.263-1.17 1.358-0.009-6.779 6.752c-0.315 0.311-0.494 0.736-0.489 1.179 0 0.919 0.75 1.664 1.669 1.664 0.43 0 0.855-0.16 1.179-0.485l1.317-1.307 1.742-1.298 0.901 0.896-3.099 3.090c-0.315 0.311-0.494 0.736-0.489 1.179 0 0.443 0.174 0.864 0.489 1.179 0.315 0.311 0.736 0.485 1.179 0.485 0.43 0 0.855-0.16 1.179-0.485l3.483-3.47 1.010-1.001h-0.005s0.014-0.014 0.023-0.018l5.166-5.659 3.47 0.494c0.027 0 0.050 0.005 0.078 0.005 0.064 0 0.128-0.014 0.187-0.037 0.018-0.005 0.032-0.014 0.050-0.023s0.041-0.014 0.059-0.027l3.214-2.135s0.018-0.023 0.027-0.027c0.014-0.009 0.027-0.014 0.041-0.027l1.271-1.189c0.348-0.326 0.566-0.789 0.566-1.302 0-0.4-0.132-0.769-0.354-1.066l0.003 0.005zM2.13 17.719c-0.169 0.091-0.375 0.11-0.558 0.050-0.294-0.092-0.504-0.363-0.504-0.682 0-0.077 0.012-0.15 0.034-0.219l-0.001 0.005c0.046-0.146 0.137-0.274 0.261-0.366l1.312-0.631 0.315 0.923 0.133 0.389-0.992 0.526zM5.627 15.89l-1.55 0.8-0.256-0.745-0.183-0.535 2.025-1.001-0.041 1.486zM20.727 9.271c0 0.919-0.219 1.783-0.599 2.56l-4.183-1.902c-0.043-0.574-0.341-1.071-0.78-1.381l-0.006-0.004 1.463-4.859c2.377 0.754 4.105 2.976 4.105 5.586zM8.937 9.271c0-3.237 2.642-5.865 5.893-5.865 0.251 0 0.498 0.023 0.745 0.050l-1.431 4.754s-0.037-0.005-0.055-0.005c-1.033 0-1.87 0.837-1.874 1.865 0 1.033 0.841 1.865 1.874 1.865 0.695 0 1.294-0.384 1.618-0.946l3.863 1.755c-1.074 1.449-2.793 2.391-4.736 2.391-3.25 0-5.893-2.633-5.893-5.865zM14.894 10.071c0 0.443-0.361 0.8-0.805 0.8s-0.805-0.357-0.805-0.8 0.361-0.8 0.805-0.8 0.805 0.357 0.805 0.8zM2.464 25.097c-0.238 0.233-0.617 0.233-0.855 0-0.233-0.233-0.233-0.608 0-0.841l0.965-0.96 0.85 0.846-0.96 0.955zM5.678 28.827c-0.238 0.233-0.617 0.233-0.855 0-0.233-0.229-0.233-0.608 0-0.841l0.965-0.96 0.85 0.85-0.96 0.955zM9.161 25.362l-1.765 1.76-0.85-0.85 1.765-1.755c0.041-0.041 0.064-0.087 0.091-0.137 0.005-0.014 0.018-0.027 0.027-0.041 0.018-0.041 0.018-0.087 0.027-0.128 0-0.023 0.014-0.046 0.014-0.073 0-0.037-0.014-0.069-0.018-0.105-0.005-0.032-0.005-0.064-0.018-0.096-0.023-0.050-0.055-0.096-0.091-0.137-0.009-0.014-0.014-0.027-0.023-0.037l-1.609-1.6s-0.041-0.023-0.059-0.037c-0.027-0.023-0.055-0.041-0.087-0.059-0.032-0.014-0.059-0.023-0.091-0.032-0.031-0.010-0.067-0.017-0.104-0.018l-0.001-0h-0.096c-0.037 0-0.069 0.009-0.105 0.018-0.032 0.009-0.064 0.027-0.096 0.046-0.018 0.009-0.041 0.014-0.059 0.027l-1.774 1.326-0.901-0.896 2.4-2.386 4.361 4.288-0.928 0.919zM15.977 18.345h-0.046c-0.037 0-0.078 0-0.114 0.005-0.064 0.009-0.128 0.032-0.183 0.069-0.027 0.018-0.055 0.037-0.082 0.059l-0.041 0.027-4.699 5.147-4.329-4.256 2.834-2.821c0.21-0.21 0.206-0.549 0-0.754-0.101-0.101-0.238-0.155-0.379-0.155l-2.217 0.014 0.027-1.609 3.104 0.027c1.307 1.344 3.104 2.103 4.983 2.103 0.439 0 0.864-0.046 1.28-0.123 0.041 0.032 0.078 0.064 0.128 0.087l2.409 0.96 0.151 0.759 0.178 0.887s-3.003-0.43-3.003-0.425zM20.018 18.523l-0.315-1.559 1.445-1.079 0.379 0.503 0.567 0.754-2.080 1.381zM23.771 15.689l-0.837 0.786-0.933-1.234 0.832-0.635c0.155-0.119 0.352-0.169 0.544-0.142 0.352 0.049 0.619 0.347 0.619 0.708 0 0.206-0.087 0.391-0.226 0.521l-0 0z"></path>
            <path fill="#212121" style="fill: var(--color1, #212121)"
                d="M13.605 18.496l-2.144-2.135c-0.21-0.206-0.544-0.206-0.754 0l-2.144 2.135c-0.21 0.21-0.21 0.549 0 0.754l2.144 2.135c0.21 0.206 0.544 0.206 0.754 0l2.144-2.135c0.21-0.206 0.21-0.544 0-0.754zM11.086 20.251l-1.385-1.381 1.385-1.381 1.385 1.381-1.385 1.381zM17.166 5.019l-0.256 1.038c0.073 0.018 1.737 0.453 1.737 2.149h1.065c0-2.016-1.664-2.967-2.546-3.186zM19.712 9.271h-1.065v1.065h1.065v-1.065z"></path>
        </symbol>
        <symbol id="icon-brand" viewBox="0 0 32 32">
            <path fill="#afb1b8" style="fill: var(--color3, #afb1b8)"
                d="M2.418 23.858c0.122 0.142 0.188 0.315 0.188 0.498 0.005 0.117-0.015 0.234-0.066 0.345s-0.127 0.208-0.224 0.284c-0.244 0.168-0.543 0.249-0.838 0.229h-1.478v-3.144h1.443c0.284-0.020 0.564 0.056 0.803 0.208 0.091 0.071 0.168 0.163 0.213 0.264 0.051 0.102 0.071 0.213 0.066 0.325 0.010 0.173-0.051 0.345-0.168 0.483-0.112 0.127-0.269 0.213-0.442 0.244 0.198 0.030 0.371 0.127 0.498 0.269zM0.686 23.38h0.62c0.142 0.010 0.279-0.030 0.391-0.107 0.046-0.038 0.082-0.085 0.106-0.14l0.001-0.002c0.025-0.051 0.030-0.112 0.025-0.168 0-0.056-0.005-0.117-0.030-0.168-0.026-0.055-0.060-0.102-0.101-0.142l-0-0c-0.099-0.068-0.222-0.109-0.354-0.109-0.018 0-0.037 0.001-0.055 0.002l0.002-0h-0.61v0.823zM1.757 24.589c0.051-0.041 0.086-0.086 0.112-0.142s0.036-0.117 0.030-0.178c0-0.061-0.010-0.122-0.036-0.178-0.027-0.058-0.066-0.106-0.116-0.142l-0.001-0.001c-0.122-0.081-0.269-0.122-0.422-0.112h-0.645v0.863h0.655c0.147 0.005 0.295-0.030 0.417-0.112zM5.369 25.209l-0.803-1.229h-0.3v1.229h-0.691v-3.144h1.31c0.325-0.020 0.65 0.071 0.909 0.269 0.183 0.173 0.295 0.396 0.31 0.635 0.015 0.244-0.061 0.483-0.213 0.665-0.168 0.173-0.386 0.284-0.625 0.32l0.858 1.255h-0.752zM4.262 23.553h0.564c0.391 0 0.589-0.157 0.589-0.477 0-0.066-0.005-0.132-0.030-0.193s-0.066-0.117-0.112-0.163c-0.127-0.096-0.284-0.142-0.447-0.127h-0.574l0.005 0.955zM9.148 24.574h-1.377l-0.244 0.635h-0.726l1.265-3.109h0.782l1.26 3.109h-0.726l-0.239-0.635zM8.965 24.102l-0.503-1.326-0.503 1.326h1.006zM13.877 25.209h-0.686l-1.539-2.138v2.138h-0.686v-3.144h0.686l1.539 2.154v-2.154h0.686v3.144zM17.793 24.457c-0.142 0.239-0.361 0.432-0.62 0.554-0.305 0.137-0.635 0.208-0.965 0.198h-1.219v-3.144h1.219c0.33-0.010 0.66 0.056 0.965 0.193 0.264 0.122 0.477 0.315 0.62 0.549 0.142 0.254 0.213 0.538 0.213 0.823s-0.076 0.569-0.213 0.823zM17.011 24.381c0.193-0.203 0.3-0.472 0.305-0.752 0-0.274-0.107-0.544-0.305-0.752-0.244-0.193-0.549-0.284-0.858-0.269h-0.477v2.037h0.477c0.31 0.020 0.615-0.076 0.858-0.269zM9.58 4.571s8.858 3.063 8.67 7.492v7.492s-8.853-3.063-8.665-7.492v-7.492zM26.138 17.803c1.671-1.056 3.606-1.707 5.628-1.9v-2.347c-2.326 0.823-4.302 2.311-5.628 4.246z"></path>
            <path fill="#afb1b8" style="fill: var(--color3, #afb1b8)"
                d="M25.133 18.509c1.366-2.524 3.744-4.475 6.634-5.445v-6.756s-12.612 4.363-12.348 10.672v10.672s0.564-0.193 1.448-0.559c0-0.34 0-0.686 0.041-1.031 0.259-2.931 1.783-5.643 4.226-7.548z"></path>
            <path fill="#afb1b8" style="fill: var(--color3, #afb1b8)"
                d="M23.934 22.476c0.066-0.742 0.213-1.473 0.442-2.184-1.524 1.646-2.448 3.683-2.636 5.831-0.020 0.203-0.030 0.406-0.036 0.615 0.823-0.361 1.63-0.752 2.428-1.173-0.224-1.016-0.29-2.057-0.198-3.088zM24.437 22.512c-0.086 0.935-0.030 1.879 0.157 2.799 3.444-1.89 7.319-4.805 7.167-8.33v-0.305c-2.463 0.254-4.764 1.239-6.557 2.804-0.416 0.965-0.676 1.991-0.767 3.037z"></path>
        </symbol>
        <symbol id="icon-company_tagline_here" viewBox="0 0 32 32">
            <path fill="#afb1b8" style="fill: var(--color3, #afb1b8)"
                d="M14.222 1.803h-0.086c-0.129-0.006-0.258-0.012-0.388-0.012h-0.283c-0.246 0-0.492 0.006-0.738 0.018h-0.055c-2.377 0.14-4.583 0.734-6.579 1.695l0.105-0.046-0.265 0.129v13.625l0.622-0.209c0.548-0.191 1.126-0.357 1.729-0.511 1.631-0.418 3.298-0.64 4.985-0.665v1.791c-0.222 0-0.437 0.006-0.652 0.018h-0.049c-1.292 0.074-2.578 0.271-3.834 0.591-1.594 0.4-3.126 0.997-4.566 1.778v-17.477c1.495-0.874 3.108-1.526 4.794-1.945 1.471-0.382 2.991-0.585 4.511-0.585h0.265c0.314 0.006 0.622 0.025 0.911 0.043 0.757 0.055 1.514 0.172 2.246 0.357v1.76c-0.629-0.154-1.373-0.27-2.135-0.324l-0.043-0.002h-0.043c-0.154-0.018-0.302-0.031-0.443-0.031zM17.323 3.606c0.388 0.031 0.794 0.043 1.206 0.043 1.6 0 3.194-0.209 4.745-0.609 1.588-0.4 3.126-0.997 4.566-1.778v17.163c-1.38 0.82-2.976 1.488-4.666 1.923l-0.128 0.028c-1.477 0.382-2.991 0.572-4.517 0.578-1.157 0.012-2.302-0.129-3.422-0.406v-17.274c0.265 0.062 0.535 0.117 0.812 0.166 0.455 0.074 0.935 0.135 1.403 0.166zM26.062 3.742l-0.622 0.209c-0.572 0.191-1.151 0.363-1.729 0.517-1.692 0.437-3.428 0.658-5.175 0.665-0.406 0-0.782-0.012-1.138-0.037l-0.498-0.031v14.018l0.425 0.037c0.394 0.037 0.806 0.049 1.212 0.049 1.372 0 2.745-0.185 4.074-0.529 1.095-0.277 2.166-0.658 3.182-1.145l0.265-0.129v-13.631z"></path>
            <path fill="#afb1b8" style="fill: var(--color3, #afb1b8)"
                d="M5.378 25.975c-0.178-0.185-0.431-0.289-0.695-0.283-0.135 0-0.271 0.025-0.4 0.074-0.234 0.092-0.425 0.283-0.511 0.517-0.049 0.123-0.074 0.252-0.074 0.388v2.332c0 0.166 0.025 0.326 0.092 0.48 0.055 0.117 0.135 0.228 0.234 0.314 0.092 0.080 0.203 0.135 0.32 0.166s0.234 0.049 0.351 0.049c0.129 0 0.258-0.025 0.375-0.080 0.357-0.154 0.591-0.511 0.591-0.905v-0.258h-0.609v0.209c0 0.074-0.012 0.142-0.037 0.209-0.018 0.049-0.049 0.092-0.086 0.129-0.074 0.055-0.16 0.086-0.258 0.092-0.010 0.001-0.021 0.002-0.033 0.002-0.104 0-0.196-0.048-0.256-0.124l-0.001-0.001c-0.051-0.082-0.081-0.182-0.081-0.289 0-0.009 0-0.018 0.001-0.027l-0 0.001v-2.178c0-0.123 0.025-0.24 0.074-0.351 0.062-0.098 0.178-0.154 0.302-0.142 0.105 0 0.209 0.043 0.271 0.129 0.068 0.092 0.105 0.203 0.098 0.314v0.203h0.603v-0.24c0-0.142-0.025-0.277-0.074-0.406-0.043-0.123-0.117-0.234-0.203-0.326zM9.003 25.951c-0.197-0.166-0.437-0.258-0.695-0.258-0.123 0-0.246 0.025-0.363 0.068-0.252 0.086-0.455 0.277-0.56 0.517-0.062 0.142-0.092 0.295-0.092 0.455v2.24c0 0.16 0.025 0.314 0.092 0.455 0.055 0.123 0.135 0.228 0.234 0.314 0.092 0.086 0.203 0.154 0.32 0.197s0.24 0.068 0.363 0.068c0.258 0 0.505-0.092 0.695-0.265 0.098-0.086 0.172-0.191 0.228-0.314 0.062-0.142 0.092-0.302 0.092-0.455v-2.24c0-0.154-0.025-0.308-0.092-0.449-0.055-0.123-0.135-0.234-0.228-0.326zM8.72 28.966c0.012 0.123-0.037 0.24-0.123 0.326-0.166 0.142-0.406 0.142-0.572 0-0.077-0.077-0.124-0.183-0.124-0.3 0-0.009 0-0.018 0.001-0.027l-0 0.001v-2.24c-0.012-0.123 0.037-0.24 0.123-0.326 0.166-0.142 0.406-0.142 0.572 0 0.086 0.086 0.129 0.203 0.123 0.326v2.24zM13.766 29.969v-4.24h-0.585l-0.769 2.246h-0.012l-0.775-2.246h-0.578v4.24h0.603v-2.578h0.012l0.591 1.822h0.302l0.597-1.822h0.012v2.578h0.603zM17.206 26.025c-0.092-0.105-0.209-0.185-0.345-0.234-0.125-0.043-0.269-0.068-0.418-0.068-0.007 0-0.013 0-0.020 0h-0.897v4.24h0.603v-1.655h0.314c0.191 0.006 0.375-0.031 0.548-0.117 0.135-0.074 0.252-0.191 0.332-0.326 0.068-0.111 0.117-0.24 0.135-0.369 0.025-0.16 0.037-0.32 0.031-0.48 0-0.203-0.012-0.406-0.062-0.603-0.043-0.148-0.117-0.283-0.222-0.388zM16.892 27.317c0 0.074-0.025 0.154-0.055 0.222-0.037 0.068-0.086 0.117-0.154 0.148-0.092 0.043-0.185 0.062-0.283 0.055h-0.277v-1.44h0.314c0.092 0 0.185 0.012 0.271 0.055 0.062 0.037 0.111 0.092 0.142 0.154 0.031 0.074 0.049 0.154 0.055 0.234v0.572zM20.068 25.729h-0.498l-0.935 4.24h0.603l0.178-0.911h0.825l0.178 0.911h0.603s-0.96-4.24-0.954-4.24zM19.508 28.48l0.295-1.538h0.012l0.295 1.538h-0.603zM23.969 28.283h-0.012l-0.911-2.554h-0.578v4.24h0.603v-2.548h0.012l0.923 2.548h0.566v-4.24h-0.603v2.554zM27.662 25.729l-0.486 1.686h-0.012l-0.486-1.686h-0.64l0.831 2.449v1.791h0.603v-1.791l0.831-2.449h-0.64zM3.692 31.169h0.289v0.818h0.197v-0.818h0.289v-0.166h-0.775v0.166zM6.142 30.997l-0.382 0.985h0.209l0.080-0.222h0.394l0.086 0.222h0.215l-0.394-0.985h-0.209zM6.111 31.594l0.135-0.363 0.135 0.363h-0.271zM8.56 31.618h0.228v0.129c-0.068 0.055-0.148 0.080-0.234 0.080-0.080 0-0.16-0.031-0.209-0.092-0.046-0.067-0.074-0.15-0.074-0.24 0-0.007 0-0.013 0-0.020l-0 0.001c0-0.222 0.092-0.326 0.283-0.326 0.105-0.012 0.197 0.055 0.222 0.16l0.197-0.037c-0.043-0.191-0.178-0.289-0.418-0.289-0.129 0-0.252 0.043-0.345 0.129-0.098 0.098-0.154 0.24-0.142 0.382 0 0.135 0.037 0.265 0.129 0.369 0.098 0.098 0.234 0.154 0.375 0.148 0.154 0 0.302-0.049 0.418-0.16v-0.388h-0.425v0.166zM11.028 30.997h-0.197v0.985h0.689v-0.166h-0.492v-0.818zM13.12 30.997h-0.197v0.985h0.197v-0.985zM15.163 31.655l-0.4-0.658h-0.191v0.985h0.185v-0.64l0.394 0.64h0.197v-0.985h-0.185v0.658zM17.009 31.551h0.492v-0.166h-0.492v-0.215h0.529v-0.166h-0.726v0.985h0.745v-0.166h-0.548v-0.265zM21.483 31.385h-0.388v-0.388h-0.197v0.985h0.197v-0.431h0.388v0.431h0.197v-0.985h-0.197v0.388zM23.342 31.551h0.492v-0.166h-0.492v-0.215h0.529v-0.166h-0.726v0.985h0.745v-0.166h-0.548v-0.265zM25.858 31.551c0.172-0.025 0.258-0.117 0.258-0.271 0.001-0.009 0.002-0.020 0.002-0.030 0-0.079-0.039-0.149-0.1-0.191l-0.001-0c-0.069-0.036-0.151-0.058-0.239-0.058-0.018 0-0.035 0.001-0.053 0.003l0.002-0h-0.418v0.985h0.197v-0.412h0.037c0.043 0 0.086 0 0.123 0.025 0.031 0.018 0.055 0.043 0.068 0.074l0.215 0.314h0.234l-0.117-0.191c-0.055-0.092-0.129-0.178-0.215-0.234zM25.662 31.415h-0.148v-0.246h0.154c0.068 0 0.135 0 0.203 0.025 0.055 0.049 0.055 0.129 0.012 0.185 0 0.006-0.012 0.012-0.018 0.018-0.068 0.018-0.135 0.031-0.203 0.025zM27.76 31.551h0.492v-0.166h-0.492v-0.215h0.529v-0.166h-0.726v0.985h0.745v-0.166h-0.548v-0.265z"></path>
        </symbol>
        <symbol id="icon-company_tagline" viewBox="0 8.5 32 15">
            <path fill="#afb1b8" style="fill: var(--color3, #afb1b8)"
                d="M16.143 15.537c-0.15-0.194-0.221-0.432-0.204-0.677v-0.98c0-0.3 0.068-0.531 0.204-0.684 0.136-0.157 0.371-0.235 0.701-0.235 0.313 0 0.534 0.068 0.664 0.201 0.143 0.17 0.211 0.378 0.197 0.586v0.232h-0.558v-0.235c0-0.075 0-0.153-0.017-0.228-0.010-0.056-0.039-0.103-0.081-0.136l-0-0c-0.051-0.034-0.114-0.055-0.181-0.055-0.007 0-0.014 0-0.020 0.001l0.001-0c-0.008-0.001-0.018-0.001-0.028-0.001-0.068 0-0.132 0.021-0.184 0.056l0.001-0.001c-0.048 0.037-0.078 0.092-0.092 0.15-0.017 0.078-0.024 0.16-0.020 0.242v1.191c-0.010 0.116 0.017 0.228 0.072 0.334 0.031 0.037 0.068 0.065 0.112 0.082s0.095 0.024 0.143 0.020c0.072 0.007 0.14-0.014 0.197-0.054 0.043-0.035 0.073-0.085 0.082-0.142l0-0.001c0.014-0.078 0.020-0.16 0.017-0.238v-0.242h0.558v0.221c0.014 0.221-0.054 0.443-0.194 0.616-0.129 0.146-0.347 0.218-0.667 0.218s-0.565-0.078-0.701-0.238zM18.471 15.547c-0.143-0.153-0.211-0.374-0.211-0.671v-1.031c0-0.293 0.072-0.511 0.211-0.66s0.378-0.225 0.708-0.225 0.562 0.075 0.705 0.225c0.14 0.15 0.211 0.371 0.211 0.66v1.031c0 0.293-0.072 0.514-0.214 0.671-0.143 0.153-0.378 0.232-0.701 0.232s-0.565-0.078-0.708-0.228zM19.438 15.299c0.051-0.095 0.075-0.201 0.068-0.306v-1.263c0.007-0.106-0.017-0.208-0.065-0.3-0.029-0.036-0.067-0.064-0.111-0.081l-0.002-0.001c-0.048-0.017-0.099-0.024-0.146-0.017-0.051-0.007-0.102 0-0.146 0.017s-0.085 0.044-0.116 0.082c-0.051 0.092-0.075 0.197-0.068 0.3v1.27c-0.007 0.106 0.017 0.211 0.068 0.306 0.034 0.031 0.072 0.058 0.119 0.075 0.092 0.037 0.194 0.037 0.286 0 0.044-0.017 0.085-0.044 0.119-0.075v-0.007zM20.766 12.991h0.603l0.453 1.903 0.463-1.903h0.586l0.058 2.751h-0.432l-0.048-1.91-0.446 1.91h-0.347l-0.463-1.917-0.044 1.917h-0.436l0.054-2.751zM23.602 12.991h0.936c0.538 0 0.81 0.259 0.81 0.78s-0.283 0.749-0.851 0.746h-0.32v1.222h-0.579v-2.751h0.003zM24.402 14.165c0.058 0.007 0.116 0 0.17-0.014s0.106-0.041 0.146-0.075c0.065-0.092 0.095-0.201 0.085-0.31 0-0.085-0.007-0.167-0.027-0.248-0.010-0.029-0.024-0.053-0.041-0.075l0 0.001c-0.020-0.022-0.043-0.041-0.070-0.054l-0.001-0.001c-0.082-0.034-0.17-0.048-0.259-0.044h-0.225v0.82h0.225zM26.182 12.991h0.62l0.637 2.751h-0.538l-0.126-0.633h-0.555l-0.129 0.633h-0.548l0.637-2.751zM26.713 14.788l-0.218-1.154-0.218 1.154h0.432zM27.956 12.991h0.405l0.776 1.569v-1.569h0.48v2.751h-0.385l-0.78-1.637v1.637h-0.497v-2.751zM30.737 14.689l-0.643-1.699h0.541l0.392 1.089 0.368-1.089h0.531l-0.637 1.699v1.049h-0.555v-1.049zM17.038 16.943v0.143h-0.473v1.117h-0.197v-1.117h-0.473v-0.143h1.144zM18.516 18.203h-0.153s-0.031 0-0.044-0.010c-0.011-0.006-0.019-0.016-0.024-0.027l-0-0-0.136-0.3h-0.654l-0.136 0.3s-0.010 0.024-0.020 0.034c-0.014 0.007-0.027 0.014-0.044 0.010h-0.153l0.579-1.26h0.201l0.586 1.256zM17.559 17.733h0.545l-0.232-0.514c-0.017-0.037-0.031-0.078-0.041-0.119-0.007 0.024-0.014 0.048-0.020 0.068l-0.020 0.051-0.228 0.514zM19.513 18.080h0.109c0.031 0 0.061-0.007 0.092-0.014 0.027-0.007 0.054-0.014 0.082-0.024 0.024-0.010 0.051-0.020 0.078-0.031v-0.283h-0.232s-0.024 0-0.031-0.010c-0.003 0-0.007-0.007-0.010-0.010v-0.109h0.449v0.483c-0.075 0.048-0.157 0.082-0.245 0.102-0.048 0.014-0.095 0.020-0.143 0.027-0.058 0.007-0.112 0.007-0.17 0.007-0.099 0-0.197-0.014-0.293-0.048-0.089-0.032-0.166-0.077-0.233-0.134l0.001 0.001c-0.061-0.054-0.112-0.123-0.15-0.201-0.037-0.082-0.054-0.17-0.054-0.262s0.017-0.18 0.051-0.262c0.075-0.158 0.211-0.278 0.377-0.329l0.004-0.001c0.099-0.031 0.204-0.048 0.31-0.048 0.054 0 0.109 0.003 0.16 0.010 0.048 0.007 0.092 0.017 0.136 0.031 0.041 0.014 0.078 0.031 0.116 0.051 0.034 0.020 0.068 0.041 0.102 0.065l-0.054 0.078s-0.010 0.014-0.020 0.017c-0.007 0.003-0.017 0.007-0.027 0.007-0.014 0-0.024-0.003-0.037-0.010-0.020-0.010-0.037-0.020-0.058-0.031-0.024-0.014-0.051-0.024-0.078-0.034-0.034-0.014-0.072-0.020-0.106-0.027-0.048-0.007-0.099-0.010-0.146-0.010-0.075 0-0.15 0.010-0.225 0.034-0.065 0.020-0.123 0.058-0.17 0.099-0.048 0.044-0.082 0.099-0.106 0.157-0.051 0.136-0.051 0.286 0 0.422 0.024 0.058 0.065 0.112 0.116 0.16 0.048 0.044 0.106 0.078 0.167 0.099 0.075 0.020 0.15 0.031 0.228 0.024zM21.358 18.060h0.633v0.143h-0.824v-1.26h0.197v1.117h-0.003zM22.645 18.203h-0.197v-1.26h0.197v1.26zM23.38 16.946s0.020 0.014 0.031 0.024l0.844 0.95v-0.984h0.174v1.266h-0.099s-0.031 0-0.044-0.007c-0.010-0.007-0.024-0.014-0.031-0.024l-0.844-0.95v0.98h-0.167v-1.26h0.102s0.024 0 0.034 0.007zM25.886 16.943v0.14h-0.701v0.415h0.569v0.133h-0.569v0.429h0.701v0.14h-0.906v-1.256h0.906zM5.161 9.154l8.783 2.152v7.544l-8.783-2.151v-7.544zM4.599 8.511v8.555l9.906 2.431v-8.555l-9.906-2.431z"></path>
            <path fill="#afb1b8" style="fill: var(--color3, #afb1b8)"
                d="M9.906 23.466l-9.906-2.434v-8.552l9.906 2.431v8.555z"></path>
            <path fill="#afb1b8" style="fill: var(--color3, #afb1b8)"
                d="M4.763 9.059l8.667 2.124-3.687 3.183-8.667-2.128 3.687-3.183zM4.599 8.511l-4.599 3.969 9.906 2.431 4.596-3.969-9.903-2.431zM10.465 22.982l4.041-3.489-4.041-0.991v4.48z"></path>
        </symbol>
        <symbol id="icon-company" viewBox="0 0 32 32">
            <path fill="#afb1b8" style="fill: var(--color3, #afb1b8)"
                d="M5.008 30.809h0.037c0.007 0 0.022 0.007 0.030 0.015l0.164 0.156c-0.127 0.127-0.283 0.223-0.454 0.298-0.208 0.074-0.424 0.112-0.647 0.104-0.208 0-0.417-0.030-0.61-0.097-0.178-0.065-0.332-0.158-0.463-0.276l0.001 0.001c-0.127-0.119-0.231-0.268-0.298-0.432-0.074-0.179-0.104-0.365-0.104-0.551-0.007-0.372 0.149-0.737 0.424-0.982 0.141-0.119 0.305-0.216 0.484-0.283 0.201-0.067 0.417-0.097 0.625-0.097 0.201 0 0.394 0.022 0.58 0.089 0.164 0.060 0.305 0.141 0.439 0.246l-0.134 0.164s-0.022 0.022-0.037 0.030c-0.015 0.007-0.037 0.015-0.052 0.015-0.022 0-0.045 0-0.060-0.015l-0.074-0.045-0.104-0.060c-0.104-0.045-0.208-0.082-0.32-0.097-0.082-0.015-0.164-0.022-0.246-0.015-0.156 0-0.305 0.022-0.446 0.074-0.263 0.091-0.47 0.284-0.578 0.53l-0.002 0.006c-0.060 0.141-0.082 0.29-0.082 0.439s0.022 0.305 0.082 0.447c0.052 0.119 0.127 0.231 0.223 0.327 0.089 0.089 0.208 0.164 0.335 0.208 0.134 0.045 0.275 0.074 0.417 0.074 0.082 0 0.164 0 0.246-0.015 0.201-0.022 0.387-0.097 0.536-0.231 0.022-0.015 0.052-0.030 0.074-0.030zM9.689 30.028c0 0.186-0.037 0.372-0.112 0.551-0.067 0.164-0.171 0.305-0.305 0.424-0.141 0.127-0.305 0.216-0.484 0.283-0.402 0.134-0.833 0.134-1.235 0-0.353-0.124-0.633-0.379-0.785-0.706l-0.003-0.008c-0.149-0.35-0.149-0.744 0-1.094 0.067-0.164 0.171-0.305 0.313-0.432 0.134-0.119 0.298-0.208 0.476-0.268 0.402-0.134 0.834-0.134 1.235 0 0.179 0.060 0.342 0.156 0.476 0.283s0.238 0.268 0.305 0.424c0.074 0.179 0.112 0.365 0.112 0.551zM9.265 30.028c0-0.149-0.022-0.298-0.074-0.439-0.097-0.253-0.305-0.454-0.558-0.536-0.29-0.097-0.603-0.097-0.9 0-0.127 0.045-0.246 0.119-0.342 0.208s-0.171 0.201-0.216 0.327c-0.104 0.283-0.104 0.595 0 0.878 0.097 0.253 0.305 0.454 0.566 0.536 0.29 0.097 0.61 0.097 0.9 0 0.127-0.045 0.246-0.119 0.342-0.208 0.097-0.097 0.171-0.208 0.216-0.327 0.052-0.141 0.082-0.29 0.074-0.439zM12.889 30.489l0.045 0.097s0.030-0.067 0.045-0.097c0.015-0.030 0.030-0.067 0.052-0.097l1.034-1.637s0.037-0.045 0.060-0.052c0.030 0 0.060-0.007 0.082-0.007h0.305v2.664h-0.365v-2.128l-1.042 1.66s-0.037 0.045-0.060 0.060c-0.030 0.015-0.060 0.022-0.089 0.022h-0.060s-0.060 0-0.089-0.022c-0.024-0.016-0.043-0.036-0.059-0.059l-0.001-0.001-1.072-1.674v2.136h-0.35v-2.657h0.305s0.060 0 0.089 0.007c0.022 0.007 0.045 0.030 0.060 0.052l1.057 1.637s0.037 0.060 0.052 0.097zM16.789 30.363v0.997h-0.402v-2.657h0.908c0.171 0 0.342 0.015 0.506 0.060 0.134 0.030 0.253 0.089 0.357 0.164 0.089 0.067 0.156 0.156 0.201 0.26 0.045 0.112 0.074 0.223 0.067 0.342 0 0.238-0.104 0.461-0.298 0.603-0.104 0.082-0.231 0.141-0.357 0.179-0.156 0.045-0.327 0.067-0.491 0.060h-0.491zM16.789 30.073h0.491c0.104 0 0.216-0.015 0.313-0.037 0.082-0.022 0.156-0.060 0.231-0.112 0.119-0.097 0.186-0.246 0.186-0.402 0-0.074-0.007-0.149-0.037-0.216-0.033-0.072-0.081-0.132-0.14-0.178l-0.001-0.001c-0.164-0.104-0.35-0.156-0.543-0.141h-0.491v1.094zM22.244 31.36h-0.32s-0.060 0-0.089-0.022c-0.023-0.014-0.041-0.035-0.052-0.059l-0-0.001-0.275-0.64h-1.384l-0.283 0.64c-0.022 0.052-0.082 0.089-0.141 0.089h-0.32l1.22-2.664h0.424l1.235 2.664zM20.234 30.37h1.146l-0.484-1.087c-0.037-0.082-0.067-0.164-0.089-0.253l-0.045 0.141c-0.015 0.045-0.030 0.082-0.045 0.112l-0.476 1.079zM24 28.711s0.045 0.030 0.060 0.045l1.779 2.009v-2.069h0.365v2.664h-0.201s-0.060 0-0.082-0.015c-0.025-0.016-0.047-0.033-0.067-0.052l0 0-1.771-2.009v2.069h-0.365v-2.664h0.216s0.052 0 0.074 0.015zM29.187 30.303v1.057h-0.402v-1.057l-1.124-1.607h0.365s0.060 0 0.089 0.022c0.022 0.015 0.045 0.037 0.052 0.060l0.7 1.034c0.030 0.045 0.052 0.082 0.074 0.127 0.022 0.037 0.037 0.074 0.052 0.112l0.052-0.112c0.022-0.045 0.045-0.082 0.067-0.119l0.692-1.042s0.030-0.037 0.052-0.060c0.022-0.022 0.060-0.030 0.089-0.022h0.365l-1.124 1.615zM12.688 24.231c0.179 0.022 0.357 0.037 0.536 0.052 2.739-1.064 5.053-2.806 6.66-5.008s2.426-4.763 2.366-7.367l-3.014-2.62c0.61 2.776 0.327 5.641-0.826 8.283s-3.133 4.949-5.715 6.668z"></path>
            <path fill="#afb1b8" style="fill: var(--color3, #afb1b8)"
                d="M11.609 24.104l0.082 0.015c2.754-1.712 4.86-4.108 6.035-6.869s1.369-5.767 0.558-8.625l-4.301-3.736c1.734 3.066 2.441 6.504 2.017 9.905-0.417 3.401-1.942 6.631-4.391 9.31zM26.188 14.98c-0.729 2.865-2.5 5.447-5.053 7.36-0.759 0.566-1.563 1.072-2.404 1.496 2.076-0.528 3.989-1.466 5.589-2.746 1.593-1.273 2.835-2.85 3.617-4.607l-1.741-1.511z"></path>
            <path fill="#afb1b8" style="fill: var(--color3, #afb1b8)"
                d="M25.503 14.556l-2.478-2.158c-0.045 2.456-0.856 4.86-2.329 6.958-1.481 2.099-3.572 3.81-6.073 4.964h0.015c0.558 0 1.109-0.030 1.667-0.089 2.337-0.826 4.398-2.143 6.006-3.833s2.709-3.699 3.2-5.842zM11.974 3.319l-2.962-2.575c-2.649 0.886-4.919 2.448-6.527 4.48-1.615 2.032-2.478 4.435-2.486 6.906 0.007 2.724 1.064 5.366 2.999 7.509s4.636 3.669 7.673 4.324c2.716-2.873 4.301-6.422 4.54-10.136 0.231-3.713-0.9-7.397-3.245-10.508zM32.342 14.162c-0.007-3.23-1.496-6.326-4.123-8.61s-6.192-3.572-9.913-3.58c-1.712 0-3.408 0.268-5.023 0.811l18.121 15.747c0.618-1.369 0.938-2.858 0.938-4.368z"></path>
        </symbol>
        <symbol id="icon-foster_peters" viewBox="0 0 32 32">
            <path fill="#afb1b8" style="fill: var(--color3, #afb1b8)"
                d="M6.075 12.243c-1.113 0-1.994 0.788-1.994 1.809s0.881 1.809 1.994 1.809 1.994-0.788 1.994-1.809-0.881-1.809-1.994-1.809zM20.962 11.687c0-1.391-0.603-2.69-1.716-3.664s-2.551-1.53-4.128-1.53-3.014 0.557-4.128 1.53-1.716 2.272-1.716 3.664v7.559s11.641-1.159 11.641-7.559h0.046zM0 21.704c0 0.974 0.417 1.855 1.206 2.551 0.742 0.696 1.809 1.067 2.875 1.067s2.087-0.371 2.875-1.067c0.742-0.696 1.206-1.577 1.206-2.551v-5.287s-8.116 0.788-8.116 5.287h-0.046zM4.035 22.678c-0.232 0-0.417-0.046-0.603-0.139s-0.325-0.232-0.371-0.417c-0.093-0.186-0.093-0.371-0.046-0.557 0-0.186 0.139-0.371 0.278-0.464 0.139-0.139 0.325-0.232 0.557-0.278 0.186 0 0.417 0 0.603 0.046 0.186 0.093 0.371 0.186 0.464 0.325 0.139 0.139 0.186 0.325 0.186 0.51 0 0.139 0 0.232-0.093 0.371-0.046 0.093-0.139 0.232-0.232 0.325s-0.232 0.139-0.325 0.186c-0.139 0.046-0.278 0.093-0.417 0.093zM12.243 22.168h-0.788v0.788h-0.417v-1.994h1.299v0.325h-0.881v0.51h0.788v0.371zM14.191 22.029c0 0.186 0 0.371-0.093 0.51-0.046 0.139-0.185 0.278-0.278 0.325-0.139 0.093-0.278 0.139-0.417 0.139s-0.325 0-0.417-0.139c-0.139-0.093-0.232-0.186-0.278-0.325-0.093-0.139-0.093-0.325-0.093-0.51v-0.093c0-0.186 0-0.371 0.093-0.51s0.185-0.278 0.278-0.325c0.139-0.093 0.278-0.139 0.417-0.139s0.325 0 0.417 0.139c0.139 0.093 0.232 0.186 0.278 0.325 0.093 0.139 0.093 0.325 0.093 0.51v0.093zM13.82 21.936c0-0.186 0-0.371-0.093-0.464s-0.185-0.139-0.325-0.139-0.232 0.046-0.325 0.139-0.093 0.278-0.093 0.464v0.093c0 0.186 0 0.371 0.093 0.464s0.185 0.186 0.325 0.186 0.232-0.046 0.325-0.139 0.093-0.278 0.093-0.464v-0.139zM15.536 22.446c0-0.093 0-0.139-0.093-0.186-0.046 0-0.139-0.093-0.278-0.139-0.139 0-0.232-0.093-0.325-0.139-0.232-0.139-0.325-0.278-0.325-0.51s0-0.186 0.093-0.278c0.046-0.093 0.139-0.139 0.278-0.186 0.093-0.046 0.232-0.093 0.371-0.093s0.278 0 0.371 0.093c0.093 0.046 0.185 0.139 0.278 0.232 0.046 0.093 0.093 0.186 0.093 0.325h-0.417c0-0.093 0-0.139-0.093-0.232-0.046-0.046-0.139-0.093-0.232-0.093s-0.185 0-0.232 0.046c-0.046 0-0.093 0.093-0.093 0.186s0 0.139 0.093 0.139c0.046 0 0.139 0.093 0.278 0.139 0.232 0.093 0.417 0.139 0.51 0.278 0.093 0.093 0.139 0.232 0.139 0.371s-0.046 0.325-0.185 0.417c-0.139 0.093-0.325 0.139-0.51 0.139s-0.278 0-0.417-0.093c-0.139-0.046-0.232-0.139-0.278-0.232s-0.093-0.232-0.093-0.325h0.417c0 0.232 0.139 0.325 0.371 0.325s0.185 0 0.232-0.046c0.046 0 0.093-0.093 0.093-0.186l-0.046 0.046zM17.716 21.333h-0.603v1.67h-0.417v-1.67h-0.603v-0.325h1.623v0.325zM19.154 22.122h-0.788v0.51h0.928v0.325h-1.345v-1.994h1.345v0.325h-0.928v0.464h0.788v0.371zM20.22 22.215h-0.325v0.742h-0.417v-1.994h0.742c0.232 0 0.417 0.046 0.557 0.139s0.186 0.232 0.186 0.464 0 0.232-0.093 0.325c-0.046 0.093-0.139 0.139-0.278 0.232l0.417 0.788h-0.417l-0.371-0.742v0.046zM19.896 21.89h0.325c0.093 0 0.186 0 0.232-0.093 0.046-0.046 0.093-0.139 0.093-0.232s0-0.186-0.093-0.232c-0.046-0.046-0.139-0.093-0.232-0.093h-0.325v0.649zM22.4 22.261v0.696h-0.417v-1.994h0.788c0.139 0 0.278 0 0.371 0.093 0.093 0.046 0.186 0.139 0.278 0.232 0.046 0.093 0.093 0.232 0.093 0.325 0 0.186-0.046 0.325-0.186 0.464-0.139 0.093-0.325 0.186-0.557 0.186h-0.371zM22.4 21.936h0.371c0.093 0 0.186 0 0.232-0.093 0.046-0.046 0.093-0.139 0.093-0.232s0-0.186-0.093-0.232c-0.046-0.046-0.139-0.093-0.232-0.093h-0.371v0.649zM24.951 22.122h-0.788v0.51h0.928v0.325h-1.345v-1.994h1.345v0.325h-0.928v0.464h0.788v0.371zM26.852 21.333h-0.603v1.67h-0.417v-1.67h-0.603v-0.325h1.623v0.325zM28.29 22.122h-0.788v0.51h0.928v0.325h-1.345v-1.994h1.345v0.325h-0.928v0.464h0.788v0.371zM29.403 22.215h-0.325v0.742h-0.417v-1.994h0.742c0.232 0 0.417 0.046 0.557 0.139s0.186 0.232 0.186 0.464 0 0.232-0.093 0.325c-0.046 0.093-0.139 0.139-0.278 0.232l0.417 0.788h-0.417l-0.371-0.742v0.046zM29.078 21.89h0.325c0.093 0 0.186 0 0.232-0.093 0.046-0.046 0.093-0.139 0.093-0.232s0-0.186-0.093-0.232c-0.046-0.046-0.139-0.093-0.232-0.093h-0.325v0.649zM31.443 22.446c0-0.093 0-0.139-0.093-0.186-0.046 0-0.139-0.093-0.278-0.139-0.139 0-0.232-0.093-0.325-0.139-0.232-0.139-0.325-0.278-0.325-0.51s0-0.186 0.093-0.278c0.046-0.093 0.139-0.139 0.278-0.186 0.093-0.046 0.232-0.093 0.371-0.093s0.278 0 0.371 0.093c0.093 0.046 0.186 0.139 0.278 0.232 0.046 0.093 0.093 0.186 0.093 0.325h-0.417c0-0.093 0-0.139-0.093-0.232-0.046-0.046-0.139-0.093-0.232-0.093s-0.186 0-0.232 0.046c-0.046 0-0.093 0.093-0.093 0.186s0 0.139 0.093 0.139c0.046 0 0.139 0.093 0.278 0.139 0.232 0.093 0.417 0.139 0.51 0.278 0.093 0.093 0.139 0.232 0.139 0.371s-0.046 0.325-0.186 0.417-0.325 0.139-0.51 0.139-0.278 0-0.417-0.093c-0.139-0.046-0.232-0.139-0.278-0.232s-0.093-0.232-0.093-0.325h0.417c0 0.232 0.139 0.325 0.371 0.325s0.186 0 0.232-0.046c0.046 0 0.093-0.093 0.093-0.186l-0.046 0.046z"></path>
        </symbol>
        <symbol id="icon-mail" viewBox="0 4 32 24">
            <path fill="#757575" style="fill: var(--color4, #757575)"
                d="M29 4h-26c-1.66 0-3 1.34-3 3v17.98c0 1.66 1.34 3 3 3h26c1.66 0 3-1.34 3-3v-17.98c0-1.66-1.34-3-3-3zM29 6c0.14 0 0.26 0.020 0.38 0.080l-13.38 11.6-13.38-11.6c0.12-0.060 0.26-0.080 0.38-0.080h26zM29 26h-26c-0.56 0-1-0.44-1-1v-16.8l13.34 11.56c0.38 0.32 0.94 0.32 1.32 0l13.34-11.56v16.8c0 0.56-0.44 1-1 1z"></path>
        </symbol>
        <symbol id="icon-smartphone" viewBox="6 0 20 32">
            <path fill="#757575" style="fill: var(--color4, #757575)"
                d="M23 0h-14c-1.66 0-3 1.34-3 3v26c0 1.66 1.34 3 3 3h14c1.66 0 3-1.34 3-3v-26c0-1.66-1.34-3-3-3zM9 2h14c0.56 0 1 0.44 1 1v21h-16v-21c0-0.56 0.44-1 1-1zM23 30h-14c-0.56 0-1-0.44-1-1v-3h16v3c0 0.56-0.44 1-1 1z"></path>
            <path fill="#757575" style="fill: var(--color4, #757575)"
                d="M10.7 27.46c0.36 0.32 0.4 0.9 0.060 1.26 0 0.020-0.040 0.040-0.060 0.060-0.4 0.36-1.020 0.36-1.42 0-0.181-0.163-0.294-0.398-0.294-0.66 0-0.232 0.089-0.443 0.234-0.601l-0.001 0.001c0-0.020 0.040-0.040 0.060-0.060 0.4-0.36 1.020-0.36 1.42 0z"></path>
        </symbol>
        <symbol id="icon-ya_and_co" viewBox="0 0 32 32">
            <path fill="#afb1b8" style="fill: var(--color3, #afb1b8)"
                d="M6.128 0l4.773 4.514h-8.858v21.91h23.149v-8.381l4.766 4.514v-22.557h-23.83zM24.98 17.518l-13.528-12.807h13.528v12.807zM20.78 23.217h-15.074v-14.734h1.062v13.74h14.012v1.001zM9.266 29.345l-0.558 1.151-0.558-1.151h-0.47l0.81 1.532v0.892h0.422v-0.892l0.81-1.532h-0.463zM9.968 31.762l0.197-0.565h0.94l0.197 0.565h0.443l-0.919-2.424h-0.381l-0.912 2.424h0.436zM10.628 29.855l0.347 1.001h-0.701l0.347-1.001zM12.848 30.802c-0.056 0.078-0.089 0.176-0.089 0.282 0 0.009 0 0.017 0.001 0.026l-0-0.001c0 0.204 0.068 0.368 0.211 0.497s0.334 0.191 0.572 0.191 0.443-0.068 0.62-0.197l0.136 0.163h0.47l-0.354-0.422c0.143-0.191 0.211-0.436 0.211-0.735h-0.347c0 0.163-0.034 0.313-0.102 0.443l-0.47-0.552 0.163-0.123c0.102-0.068 0.184-0.15 0.252-0.252 0.048-0.082 0.075-0.184 0.075-0.279 0-0.15-0.061-0.286-0.17-0.381-0.105-0.097-0.246-0.157-0.401-0.157-0.010 0-0.020 0-0.029 0.001l0.001-0c-0.197 0-0.347 0.054-0.463 0.163s-0.17 0.259-0.17 0.449c0 0.075 0.020 0.157 0.054 0.238 0.041 0.082 0.102 0.184 0.197 0.3-0.177 0.129-0.3 0.238-0.361 0.334zM13.944 31.34c-0.109 0.088-0.245 0.136-0.381 0.136-0.109 0-0.211-0.034-0.286-0.102-0.067-0.068-0.109-0.161-0.109-0.264 0-0.003 0-0.006 0-0.009v0c0-0.129 0.068-0.245 0.197-0.347l0.054-0.034 0.531 0.626zM13.508 30.264c-0.116-0.143-0.17-0.259-0.17-0.347 0-0.082 0.020-0.15 0.068-0.197 0.048-0.054 0.116-0.082 0.191-0.082 0.068 0 0.129 0.020 0.184 0.068 0.048 0.048 0.068 0.102 0.068 0.163 0 0.088-0.034 0.177-0.102 0.238l-0.054 0.041-0.184 0.129zM17.443 31.585c0.163-0.143 0.259-0.347 0.286-0.606h-0.422c-0.020 0.17-0.075 0.3-0.157 0.368-0.082 0.075-0.211 0.109-0.374 0.109-0.177 0-0.32-0.068-0.409-0.204-0.095-0.136-0.143-0.334-0.143-0.599v-0.211c0-0.259 0.054-0.456 0.15-0.586 0.102-0.136 0.238-0.197 0.422-0.197 0.157 0 0.279 0.041 0.361 0.116s0.129 0.204 0.15 0.374h0.422c-0.027-0.266-0.123-0.47-0.286-0.613s-0.381-0.218-0.647-0.218c-0.197 0-0.374 0.048-0.524 0.143s-0.272 0.238-0.347 0.402c-0.082 0.191-0.129 0.395-0.123 0.606v0.225c0 0.225 0.048 0.415 0.123 0.586 0.082 0.17 0.191 0.3 0.34 0.388s0.32 0.136 0.511 0.136c0.272 0 0.497-0.068 0.66-0.218zM19.915 31.244c0.082-0.177 0.123-0.388 0.123-0.626v-0.136c0-0.211-0.041-0.422-0.129-0.62-0.075-0.17-0.197-0.313-0.354-0.409-0.15-0.095-0.327-0.143-0.524-0.143s-0.374 0.048-0.524 0.143c-0.15 0.095-0.272 0.232-0.354 0.415-0.088 0.197-0.129 0.409-0.123 0.626v0.136c0 0.232 0.041 0.436 0.129 0.613 0.082 0.177 0.204 0.313 0.354 0.409 0.157 0.095 0.327 0.143 0.524 0.143s0.374-0.048 0.524-0.143c0.15-0.095 0.272-0.232 0.354-0.415zM19.466 29.876c0.102 0.143 0.15 0.347 0.15 0.62v0.129c0 0.272-0.048 0.483-0.15 0.62-0.102 0.143-0.245 0.211-0.429 0.211-0.17 0-0.334-0.075-0.429-0.218-0.102-0.143-0.157-0.347-0.157-0.62v-0.143c0-0.259 0.054-0.463 0.157-0.606 0.095-0.143 0.259-0.218 0.429-0.211 0.184 0 0.334 0.068 0.429 0.211z"></path>
        </symbol>
        <symbol id="icon-twitter" viewBox="0 0 32 32">
            <path fill="#fff" style="fill: var(--color5, #fff)"
                d="M32 16c0 0.006 0 0.013 0 0.020 0 4.412-1.791 8.405-4.686 11.293l-0 0c-2.888 2.895-6.881 4.687-11.293 4.687-0.007 0-0.014 0-0.021 0h0.001c-0.006 0-0.013 0-0.020 0-4.412 0-8.405-1.791-11.293-4.686l-0-0c-2.895-2.888-4.687-6.881-4.687-11.293 0-0.007 0-0.014 0-0.021v0.001c0-0.006 0-0.013 0-0.020 0-4.412 1.791-8.405 4.686-11.293l0-0c2.888-2.895 6.881-4.687 11.293-4.687 0.007 0 0.014 0 0.021 0h-0.001c0.006 0 0.013 0 0.020 0 4.412 0 8.405 1.791 11.293 4.686l0 0c2.895 2.888 4.687 6.881 4.687 11.293 0 0.007 0 0.014 0 0.021v-0.001z"></path>
            <path fill="#afb1b8" style="fill: var(--color3, #afb1b8)"
                d="M23.273 11.49c-0.5 0.224-1.080 0.39-1.688 0.467l-0.031 0.003c0.618-0.371 1.083-0.945 1.306-1.627l0.006-0.021c-0.544 0.328-1.178 0.579-1.853 0.715l-0.038 0.006c-0.545-0.582-1.319-0.945-2.177-0.945-1.646 0-2.981 1.335-2.981 2.981 0 0.001 0 0.002 0 0.003v-0c0 0.236 0.020 0.464 0.070 0.68-2.479-0.121-4.673-1.309-6.147-3.119-0.256 0.432-0.407 0.952-0.407 1.508v0c0 1.033 0.531 1.948 1.324 2.478-0.496-0.014-0.958-0.148-1.362-0.375l0.015 0.008v0.033c0.001 1.439 1.017 2.64 2.37 2.927l0.020 0.003c-0.227 0.062-0.487 0.098-0.756 0.098-0.009 0-0.018-0-0.028-0h0.001c-0.014 0-0.030 0-0.047 0-0.183 0-0.362-0.019-0.534-0.054l0.017 0.003c0.386 1.181 1.483 2.049 2.786 2.078-1.006 0.793-2.292 1.271-3.69 1.271-0.003 0-0.005 0-0.008 0h0c-0.012 0-0.026 0-0.039 0-0.238 0-0.472-0.015-0.701-0.044l0.027 0.003c1.285 0.839 2.858 1.338 4.547 1.338 0.010 0 0.019-0 0.029-0h-0.002c5.487 0 8.487-4.545 8.487-8.486 0-0.131-0.004-0.259-0.011-0.385 0.59-0.425 1.087-0.938 1.481-1.526l0.014-0.021z"></path>
        </symbol>
        <symbol id="icon-linkedin" viewBox="0 0 32 32">
            <path fill="#fff" style="fill: var(--color5, #fff)"
                d="M32 16c0 0.006 0 0.013 0 0.020 0 4.412-1.791 8.405-4.686 11.293l-0 0c-2.888 2.895-6.881 4.687-11.293 4.687-0.007 0-0.014 0-0.021 0h0.001c-0.006 0-0.013 0-0.020 0-4.412 0-8.405-1.791-11.293-4.686l-0-0c-2.895-2.888-4.687-6.881-4.687-11.293 0-0.007 0-0.014 0-0.021v0.001c0-0.006 0-0.013 0-0.020 0-4.412 1.791-8.405 4.686-11.293l0-0c2.888-2.895 6.881-4.687 11.293-4.687 0.007 0 0.014 0 0.021 0h-0.001c0.006 0 0.013 0 0.020 0 4.412 0 8.405 1.791 11.293 4.686l0 0c2.895 2.888 4.687 6.881 4.687 11.293 0 0.007 0 0.014 0 0.021v-0.001z"></path>
            <path fill="#afb1b8" style="fill: var(--color3, #afb1b8)"
                d="M23.269 23.273h0.004v-5.335c0-2.609-0.562-4.62-3.613-4.62-1.466 0-2.451 0.804-2.852 1.567h-0.042v-1.324h-2.893v9.711h3.012v-4.808c0-1.266 0.24-2.491 1.808-2.491 1.545 0 1.567 1.445 1.567 2.572v4.728h3.009zM8.967 13.562h3.016v9.711h-3.016v-9.711zM10.474 8.727c-0.965 0-1.747 0.782-1.747 1.747v0c0 0.964 0.783 1.763 1.747 1.763s1.746-0.799 1.746-1.763c-0-0.964-0.782-1.746-1.746-1.747h-0z"></path>
        </symbol>
        <symbol id="icon-instagram" viewBox="0 0 32 32">
            <path fill="#fff" style="fill: var(--color5, #fff)"
                d="M32 16c0 0.006 0 0.013 0 0.020 0 4.412-1.791 8.405-4.686 11.293l-0 0c-2.888 2.895-6.881 4.687-11.293 4.687-0.007 0-0.014 0-0.021 0h0.001c-0.006 0-0.013 0-0.020 0-4.412 0-8.405-1.791-11.293-4.686l-0-0c-2.895-2.888-4.687-6.881-4.687-11.293 0-0.007 0-0.014 0-0.021v0.001c0-0.006 0-0.013 0-0.020 0-4.412 1.791-8.405 4.686-11.293l0-0c2.888-2.895 6.881-4.687 11.293-4.687 0.007 0 0.014 0 0.021 0h-0.001c0.006 0 0.013 0 0.020 0 4.412 0 8.405 1.791 11.293 4.686l0 0c2.895 2.888 4.687 6.881 4.687 11.293 0 0.007 0 0.014 0 0.021v-0.001z"></path>
            <path fill="#afb1b8" style="fill: var(--color3, #afb1b8)"
                d="M23.258 13.004c-0.033-0.773-0.159-1.304-0.337-1.764-0.193-0.505-0.479-0.936-0.841-1.29l-0.001-0.001c-0.354-0.36-0.784-0.645-1.263-0.83l-0.024-0.008c-0.463-0.179-0.991-0.304-1.764-0.337-0.778-0.037-1.025-0.046-3.001-0.046s-2.222 0.009-2.998 0.043c-0.773 0.033-1.304 0.159-1.764 0.338-0.505 0.193-0.936 0.479-1.29 0.84l-0.001 0.001c-0.36 0.354-0.645 0.784-0.83 1.263l-0.008 0.024c-0.18 0.463-0.304 0.991-0.338 1.764-0.037 0.778-0.046 1.025-0.046 3.001s0.009 2.222 0.043 2.998c0.034 0.773 0.159 1.304 0.338 1.764 0.194 0.505 0.48 0.935 0.84 1.29l0.001 0c0.364 0.369 0.804 0.656 1.287 0.838 0.463 0.18 0.992 0.305 1.764 0.338 0.776 0.034 1.023 0.043 2.998 0.043s2.222-0.009 2.998-0.043c0.773-0.033 1.304-0.159 1.764-0.337 0.981-0.386 1.742-1.148 2.12-2.104l0.009-0.025c0.179-0.463 0.304-0.992 0.338-1.764 0.034-0.776 0.042-1.023 0.042-2.998s-0.003-2.222-0.036-2.998zM21.949 18.943c-0.032 0.711-0.151 1.094-0.25 1.349-0.251 0.637-0.745 1.131-1.365 1.376l-0.016 0.006c-0.255 0.099-0.641 0.218-1.349 0.249-0.767 0.034-0.997 0.043-2.938 0.043s-2.174-0.009-2.938-0.043c-0.711-0.031-1.094-0.151-1.35-0.25-0.328-0.122-0.606-0.307-0.834-0.542l-0.001-0.001c-0.235-0.229-0.42-0.508-0.538-0.819l-0.005-0.016c-0.099-0.256-0.218-0.642-0.249-1.35-0.034-0.767-0.043-0.998-0.043-2.938s0.009-2.175 0.043-2.938c0.031-0.711 0.151-1.094 0.249-1.35 0.122-0.328 0.308-0.608 0.545-0.835l0.001-0.001c0.229-0.235 0.509-0.42 0.821-0.537l0.016-0.005c0.255-0.099 0.641-0.218 1.349-0.25 0.767-0.033 0.998-0.042 2.938-0.042 1.943 0 2.174 0.008 2.938 0.042 0.711 0.031 1.094 0.151 1.35 0.25 0.315 0.116 0.602 0.301 0.835 0.543 0.241 0.236 0.426 0.52 0.543 0.836 0.099 0.255 0.218 0.641 0.249 1.349 0.034 0.767 0.043 0.997 0.043 2.938s-0.009 2.167-0.043 2.935z"></path>
            <path fill="#afb1b8" style="fill: var(--color3, #afb1b8)"
                d="M16.027 12.265c-0 0-0 0-0.001 0-2.064 0-3.737 1.673-3.737 3.737s1.673 3.737 3.737 3.737c2.064 0 3.737-1.673 3.737-3.737 0-0 0-0 0-0.001v0c-0-2.064-1.673-3.736-3.737-3.737h-0zM16.027 18.425c-1.339-0-2.424-1.085-2.424-2.424s1.085-2.424 2.424-2.424c0 0 0 0 0 0h-0c1.339 0 2.424 1.085 2.424 2.424s-1.085 2.424-2.424 2.424v0zM20.784 12.117c0 0.482-0.391 0.873-0.873 0.873s-0.873-0.391-0.873-0.873v0c0-0.482 0.391-0.873 0.873-0.873s0.873 0.391 0.873 0.873v0z"></path>
        </symbol>
        <symbol id="icon-facebook" viewBox="0 0 32 32">
            <path fill="#fff" style="fill: var(--color5, #fff)"
                d="M32 16c0 0.006 0 0.013 0 0.020 0 4.412-1.791 8.405-4.686 11.293l-0 0c-2.888 2.895-6.881 4.687-11.293 4.687-0.007 0-0.014 0-0.021 0h0.001c-0.006 0-0.013 0-0.020 0-4.412 0-8.405-1.791-11.293-4.686l-0-0c-2.895-2.888-4.687-6.881-4.687-11.293 0-0.007 0-0.014 0-0.021v0.001c0-0.006 0-0.013 0-0.020 0-4.412 1.791-8.405 4.686-11.293l0-0c2.888-2.895 6.881-4.687 11.293-4.687 0.007 0 0.014 0 0.021 0h-0.001c0.006 0 0.013 0 0.020 0 4.412 0 8.405 1.791 11.293 4.686l0 0c2.895 2.888 4.687 6.881 4.687 11.293 0 0.007 0 0.014 0 0.021v-0.001z"></path>
            <path fill="#afb1b8" style="fill: var(--color3, #afb1b8)"
                d="M18.422 11.142h1.329v-2.313c-0.56-0.065-1.21-0.102-1.868-0.102-0.024 0-0.047 0-0.071 0h0.004c-1.915 0-3.226 1.204-3.226 3.418v2.036h-2.113v2.585h2.113v6.505h2.59v-6.505h2.028l0.321-2.585h-2.349v-1.782c0-0.747 0.201-1.258 1.243-1.258z"></path>
        </symbol>
        <symbol id="icon-diagram" viewBox="0 0 32 32">
            <path fill="#2196f3" style="fill: var(--color2, #2196f3)"
                d="M14.926 14.965h1.066v4.798h-1.066v-4.798zM19.19 17.097h1.066v2.665h-1.066v-2.665zM10.661 18.696h1.066v1.066h-1.066v-1.066zM7.463 18.163h1.066v1.599h-1.066v-1.599z"></path>
            <path fill="#212121" style="fill: var(--color1, #212121)"
                d="M1.599 28.291h25.586c0 0 0 0 0 0 0.883 0 1.599-0.716 1.599-1.599v0-2.132c0-0.883-0.716-1.599-1.599-1.599v0h-0.533v-13.294l3.028-2.868c0.207 0.104 0.452 0.166 0.711 0.166 0.888 0 1.608-0.72 1.608-1.608s-0.72-1.608-1.608-1.608c-0.888 0-1.608 0.72-1.608 1.608 0 0.247 0.056 0.481 0.155 0.69l-0.004-0.010-2.281 2.162v-1.23c0-0.883-0.716-1.599-1.599-1.599v0h-21.323c-0.883 0-1.599 0.716-1.599 1.599v0 15.992h-0.533c-0.883 0-1.599 0.716-1.599 1.599v0 2.132c0 0.883 0.716 1.599 1.599 1.599v0zM30.384 4.837c0.294 0 0.533 0.239 0.533 0.533s-0.239 0.533-0.533 0.533v0c-0.294 0-0.533-0.239-0.533-0.533s0.239-0.533 0.533-0.533v0zM3.198 6.969c0-0.294 0.239-0.533 0.533-0.533h21.323c0.294 0 0.533 0.239 0.533 0.533v2.239l-1.066 1.013v-2.185c0-0.295-0.239-0.534-0.534-0.534h-19.189c-0.294 0-0.534 0.239-0.534 0.533v13.327c0 0.294 0.239 0.533 0.534 0.533h19.189c0.295 0 0.534-0.239 0.534-0.533v-9.675l1.066-1.010v12.283h-22.389v-15.991zM7.996 13.899c-0.001 0-0.003 0-0.005 0-0.883 0-1.599 0.716-1.599 1.599s0.716 1.599 1.599 1.599c0.432 0 0.824-0.172 1.112-0.45l-0 0 1.853 0.93c0.215 0.107 0.476 0.057 0.636-0.122l3.939-4.432 3.872 2.902c0.208 0.155 0.498 0.139 0.686-0.039l3.365-3.188v8.131h-18.123v-12.261h18.123v2.661l-3.771 3.572-3.904-2.927c-0.088-0.067-0.2-0.107-0.32-0.107-0.158 0-0.3 0.069-0.398 0.178l-0 0.001-3.993 4.493-1.493-0.746c0.011-0.064 0.017-0.128 0.020-0.193 0-0.883-0.716-1.599-1.599-1.599v0zM8.529 15.498c0 0.294-0.239 0.533-0.533 0.533s-0.533-0.239-0.533-0.533v0c0-0.294 0.239-0.533 0.533-0.533s0.533 0.239 0.533 0.533v0zM11.727 24.026h5.33v0.533c0 0.294-0.238 0.533-0.533 0.533h-4.265c-0.294 0-0.533-0.239-0.533-0.533v0-0.533zM1.067 24.56c0-0.294 0.238-0.533 0.533-0.533h9.062v0.533c0 0.883 0.716 1.599 1.599 1.599v0h4.265c0.883 0 1.599-0.716 1.599-1.599v0-0.533h9.062c0.294 0 0.533 0.239 0.533 0.533v2.132c0 0.294-0.239 0.533-0.533 0.533h-25.586c-0 0-0 0-0 0-0.294 0-0.533-0.239-0.533-0.533 0 0 0 0 0 0v0-2.132z"></path>
        </symbol>
        <symbol id="icon-clock" viewBox="0 0 32 32">
            <path fill="#212121" style="fill: var(--color1, #212121)"
                d="M31.296 15.301c-0.001-8.452-6.855-15.303-15.308-15.301s-15.303 6.855-15.301 15.308c0.002 6.788 4.422 12.543 10.541 14.545l0.108 0.031c0.061 0.019 0.123 0.029 0.187 0.029 0.12 0 0.238-0.032 0.342-0.094 0.135-0.080 0.236-0.207 0.283-0.357l3.865-12.25c1.054-0.004 1.906-0.859 1.906-1.913 0-1.056-0.856-1.913-1.913-1.913-0.303 0-0.59 0.071-0.845 0.196l0.011-0.005-5.106-5.107c-0.114-0.11-0.271-0.179-0.443-0.179-0.352 0-0.638 0.286-0.638 0.638 0 0.172 0.068 0.328 0.179 0.443l-0-0 5.103 5.109c-0.121 0.241-0.191 0.525-0.191 0.826 0 0.602 0.283 1.137 0.723 1.48l0.004 0.003-3.682 11.673c-7.278-2.681-11.004-10.754-8.324-18.032s10.754-11.004 18.032-8.323c7.278 2.681 11.004 10.754 8.323 18.032-1.345 3.581-4.003 6.406-7.374 7.938l-0.088 0.036-0.398-1.874c-0.063-0.291-0.318-0.506-0.624-0.506-0.164 0-0.313 0.062-0.426 0.163l0.001-0.001-3.837 3.426c-0.132 0.117-0.214 0.287-0.214 0.477 0 0.283 0.185 0.524 0.441 0.606l0.005 0.001 4.899 1.563c0.058 0.020 0.126 0.031 0.196 0.031 0.352 0 0.637-0.285 0.637-0.637 0-0.047-0.005-0.093-0.015-0.138l0.001 0.004-0.391-1.839c5.528-2.374 9.329-7.772 9.329-14.057 0-0.011 0-0.023-0-0.034v0.002zM15.992 14.664c0.352 0 0.638 0.286 0.638 0.638s-0.285 0.638-0.638 0.638v0c-0.352 0-0.638-0.286-0.638-0.638s0.286-0.638 0.638-0.638v0zM18.092 29.528l2.184-1.948 0.603 2.84-2.787-0.892z"></path>
            <path fill="#2196f3" style="fill: var(--color2, #2196f3)"
                d="M15.354 3.185v1.275c0 0.352 0.286 0.638 0.638 0.638s0.638-0.285 0.638-0.638v0-1.275c0-0.352-0.285-0.638-0.638-0.638s-0.638 0.285-0.638 0.638v0zM3.876 14.664c-0.352 0-0.638 0.286-0.638 0.638s0.285 0.638 0.638 0.638h1.275c0.352 0 0.638-0.286 0.638-0.638s-0.285-0.638-0.638-0.638h-1.275zM28.108 15.939c0.352 0 0.638-0.286 0.638-0.638s-0.285-0.638-0.638-0.638h-1.275c-0.352 0-0.638 0.286-0.638 0.638s0.285 0.638 0.638 0.638h1.275z"></path>
        </symbol>
    </defs>
</svg>