<svg data-name="Шар_2" xmlns="http://www.w3.org/2000/svg" viewBox="0 0 143.9 19.24"><g data-name="Шар_1"><path d="M8.24.57h3.33l2.11 6.11L15.81.57h3.3l-3.17 8.4 2.34 5.88L23.5.52h3.9l-7.38 18.46h-3.09l-3.25-7.75-3.22 7.75H7.37L0 .52h3.85L9.1 14.85l2.29-5.88L8.24.57Zm25.99 18.67c-1.09 0-2.08-.18-2.96-.55-.88-.38-1.64-.89-2.26-1.53-.62-.66-1.11-1.4-1.46-2.24-.33-.85-.49-1.74-.49-2.68 0-1.3.29-2.49.86-3.56a6.703 6.703 0 0 1 2.5-2.57c1.09-.66 2.37-.99 3.85-.99s2.76.33 3.82.99c1.06.64 1.86 1.5 2.42 2.57.57 1.06.86 2.2.86 3.43 0 .21 0 .42-.03.65-.02.21-.03.38-.05.52H30.76c.07.69.27 1.3.6 1.82.35.52.78.92 1.3 1.2.54.26 1.11.39 1.72.39.69 0 1.34-.16 1.95-.49.62-.35 1.05-.8 1.27-1.35l2.99.83c-.33.69-.81 1.31-1.43 1.85-.61.54-1.33.96-2.16 1.27-.83.29-1.75.44-2.76.44Zm-3.56-8.16h7.12c-.07-.69-.27-1.29-.6-1.79-.31-.52-.73-.92-1.25-1.2-.52-.29-1.1-.44-1.74-.44a3.439 3.439 0 0 0-2.97 1.64c-.31.5-.5 1.1-.57 1.79ZM52 19.24c-1.04 0-1.97-.23-2.78-.7a5.129 5.129 0 0 1-1.92-1.92v2.37h-3.04V0h3.48v7.75c.49-.81 1.12-1.46 1.9-1.92.8-.47 1.72-.7 2.78-.7.88 0 1.69.19 2.42.57.73.36 1.35.88 1.87 1.53.54.66.94 1.41 1.22 2.26.29.85.44 1.76.44 2.73s-.16 1.88-.49 2.73c-.31.85-.75 1.6-1.33 2.26-.57.64-1.25 1.14-2.03 1.51-.76.35-1.6.52-2.52.52Zm-.96-2.96c.55 0 1.06-.1 1.51-.31.47-.23.87-.52 1.2-.88.35-.36.61-.79.78-1.27.19-.5.29-1.02.29-1.56 0-.75-.16-1.43-.47-2.05a3.7 3.7 0 0 0-1.25-1.53c-.52-.38-1.14-.57-1.85-.57-.5 0-.99.12-1.46.36-.45.23-.86.54-1.22.94-.35.4-.62.85-.83 1.35v3.25c.1.35.27.66.49.94.24.28.52.52.83.73.31.19.63.35.96.47.35.1.68.16 1.01.16Z" style="fill:#2196f3"/><path d="M72.85 5.36c-.12-.12-.35-.29-.68-.49-.31-.21-.7-.41-1.17-.6a9.51 9.51 0 0 0-1.48-.49 5.7 5.7 0 0 0-1.64-.23c-.97 0-1.71.18-2.21.55-.49.36-.73.88-.73 1.53 0 .5.16.9.47 1.2.31.29.78.55 1.4.75s1.4.43 2.34.68c1.21.29 2.26.66 3.15 1.09.9.42 1.59.97 2.05 1.66.49.68.73 1.58.73 2.7 0 .99-.18 1.84-.55 2.55-.36.69-.87 1.26-1.51 1.69-.64.43-1.37.75-2.18.96-.81.19-1.68.29-2.6.29s-1.84-.1-2.76-.29c-.92-.19-1.8-.46-2.65-.81-.85-.36-1.63-.8-2.34-1.3l1.59-3.09c.16.16.43.36.83.62.4.24.88.49 1.46.75.57.24 1.2.45 1.87.62.68.17 1.36.26 2.05.26.97 0 1.71-.16 2.21-.49.5-.33.75-.8.75-1.4 0-.55-.2-.99-.6-1.3-.4-.31-.95-.58-1.66-.81-.71-.24-1.55-.5-2.52-.78-1.16-.33-2.13-.69-2.91-1.09-.78-.42-1.36-.94-1.74-1.56-.38-.62-.57-1.4-.57-2.34 0-1.27.29-2.32.88-3.17.61-.87 1.42-1.52 2.44-1.95 1.02-.45 2.16-.68 3.41-.68.87 0 1.68.1 2.44.29.78.19 1.51.44 2.18.75.68.31 1.28.65 1.82 1.01l-1.59 2.91ZM86.1 18.28c-.29.12-.65.26-1.07.42s-.87.28-1.35.36c-.47.1-.94.16-1.43.16-.64 0-1.23-.11-1.77-.34a2.89 2.89 0 0 1-1.3-1.07c-.31-.5-.47-1.15-.47-1.95V8.03h-1.79V5.35h1.79V.94h3.48v4.42h2.86v2.68h-2.86v6.66c.02.47.15.81.39 1.01.24.21.55.31.91.31s.72-.06 1.07-.18c.35-.12.62-.23.83-.31l.7 2.76Zm2.46-4.4V5.36h3.48v7.77c0 1.04.19 1.83.57 2.37.38.52.94.78 1.69.78.45 0 .89-.09 1.33-.26.45-.19.86-.47 1.22-.83.38-.36.7-.82.96-1.38V5.36h3.48v9.72c0 .36.06.62.18.78.14.16.35.25.65.29v2.83c-.35.05-.64.09-.88.1-.22.03-.43.05-.62.05-.62 0-1.14-.14-1.53-.42-.38-.29-.61-.69-.68-1.2l-.08-1.09c-.61.92-1.39 1.62-2.34 2.11-.95.47-2 .7-3.15.7-1.4 0-2.47-.45-3.2-1.35-.73-.92-1.09-2.25-1.09-4Zm16.15-1.71c0-1.32.26-2.5.78-3.56.52-1.07 1.24-1.92 2.16-2.55.92-.62 1.97-.94 3.15-.94 1.01 0 1.91.25 2.7.75.82.49 1.45 1.11 1.9 1.87V0h3.48v15.08c0 .36.06.62.18.78.12.16.33.25.62.29v2.83c-.61.12-1.1.18-1.48.18-.62 0-1.14-.16-1.56-.47-.4-.31-.62-.72-.68-1.22l-.05-.86c-.5.85-1.19 1.5-2.05 1.95-.85.45-1.74.68-2.68.68s-1.8-.18-2.6-.55c-.78-.36-1.46-.87-2.05-1.51a7.32 7.32 0 0 1-1.35-2.24c-.31-.87-.47-1.79-.47-2.78Zm10.69 1.82v-3.25c-.17-.5-.45-.95-.83-1.35-.38-.4-.81-.71-1.27-.94-.47-.24-.94-.36-1.4-.36-.54 0-1.02.11-1.46.34-.43.23-.81.53-1.14.91-.31.38-.55.82-.73 1.33-.16.5-.23 1.03-.23 1.59s.09 1.08.26 1.59c.19.49.46.91.81 1.27.35.36.75.65 1.2.86.47.21.97.31 1.51.31.33 0 .66-.05.99-.16.35-.12.67-.28.96-.47.31-.21.58-.45.81-.73.24-.29.43-.61.55-.94Zm7.68 4.99V5.36h3.48v13.62h-3.48Zm0-15.52V0h3.48v3.46h-3.48Zm13.7 15.78c-1.11 0-2.11-.18-2.99-.55-.88-.38-1.64-.9-2.26-1.56a7.032 7.032 0 0 1-1.4-2.26c-.33-.85-.49-1.74-.49-2.68s.16-1.85.49-2.7c.33-.85.8-1.6 1.4-2.26.62-.66 1.38-1.17 2.26-1.53.88-.38 1.88-.57 2.99-.57s2.1.19 2.96.57c.88.36 1.64.88 2.26 1.53.62.66 1.09 1.41 1.4 2.26.33.85.49 1.75.49 2.7s-.17 1.83-.49 2.68c-.31.85-.78 1.6-1.4 2.26-.61.66-1.35 1.18-2.24 1.56-.88.36-1.88.55-2.99.55Zm-3.56-7.05c0 .8.16 1.51.47 2.13.31.61.74 1.08 1.27 1.43.54.35 1.14.52 1.82.52s1.26-.17 1.79-.52c.54-.36.96-.85 1.27-1.46.33-.62.49-1.33.49-2.13s-.16-1.48-.49-2.11a3.7 3.7 0 0 0-1.27-1.46c-.54-.35-1.14-.52-1.79-.52s-1.28.18-1.82.55c-.54.35-.96.83-1.27 1.46-.31.61-.47 1.31-.47 2.11Z"/></g></svg>